# xmcd
#
# Track frame offsets:
#	150
#	7098
#	26838
#	54696
#	70387
#	88590
#	104549
#	120465
#	138465
#	161149
#	178719
#	182873
#	201630
#	216271
#
# Disc length: 3126 seconds
# Revision: 0
# Processed by: cddbd v1.5.2PL0 Copyright (c) Steve Scherf et al.
# Submitted via: dBpowerAMP V12.0
#
DISCID=db0c340e
DTITLE=Lil ' Tec - Shut' Em Down
DYEAR=2002
DGENRE=Down South Rap
TTITLE0=Intro
TTITLE1=Shut em Down
TTITLE2=She Don't Understand (feat. Mr.LPD)
TTITLE3=Aint Shit Changed
TTITLE4=Where My Love At?
TTITLE5=Anutha Day
TTITLE6=Dirty Bizness (feat. Red BoSS, Mr.LPD)
TTITLE7=EyezUVDaDevil
TTITLE8=Sticky Situation (feat. Red Boss)
TTITLE9=Git Ya Smoke On
TTITLE10=Interlude
TTITLE11=You Done Fucked Wit Me
TTITLE12=I Know You Said It
TTITLE13=Daddy's Lil Girl
EXTD=
EXTT0=
EXTT1=
EXTT2=
EXTT3=
EXTT4=
EXTT5=
EXTT6=
EXTT7=
EXTT8=
EXTT9=
EXTT10=
EXTT11=
EXTT12=
EXTT13=
PLAYORDER=
